<?xml version="1.0" encoding="utf-8"?>
<!-- Generator: Adobe Illustrator 28.0.0, SVG Export Plug-In . SVG Version: 6.00 Build 0)  -->
<svg version="1.1" id="Brand_Manual" xmlns="http://www.w3.org/2000/svg" xmlns:xlink="http://www.w3.org/1999/xlink" x="0px"
	 y="0px" viewBox="0 0 532.05 134.69" style="enable-background:new 0 0 532.05 134.69;" xml:space="preserve">
<style type="text/css">
	.st0{fill:#183244;}
	.st1{opacity:0.19;fill:#89D0CA;}
	.st2{fill:url(#SVGID_00000090290330055406810800000017720967181375905464_);}
	.st3{fill:#E8E8E8;}
	.st4{fill:#89D0CA;}
	.st5{fill:#428A9E;}
	.st6{fill:#065079;}
	.st7{fill:#1C1C1B;}
	.st8{fill:none;stroke:#FFFFFF;stroke-miterlimit:10;}
	.st9{fill:none;stroke:#89D0CA;stroke-miterlimit:10;}
	.st10{fill:none;stroke:#89D0CA;stroke-width:0.75;stroke-miterlimit:10;}
	.st11{opacity:0.19;fill:#E8E8E8;}
	.st12{fill:#064F79;}
	.st13{fill:#84CCCE;}
	.st14{fill:#183144;}
	.st15{fill:#1C1C1B;stroke:#E8E8E8;stroke-miterlimit:10;}
	.st16{fill:#E8E8E8;stroke:#E8E8E8;stroke-miterlimit:10;}
	.st17{fill:url(#SVGID_00000111174336126593377820000016090746729754167210_);}
</style>
<g>
	<g>
		<g>
			<path class="st14" d="M128.96,0H5.74C2.57,0,0,2.57,0,5.74v54.25c0.04,0.07,0.06,0.13,0.1,0.2c1.33-9.29,4.54-17.33,9.86-24.64
				c-1.8-0.22-3.27-0.88-3.04-2.72c0.12-0.9,1.06-2.08,1.92-2.43c1.64-0.66,2.67,0.48,3.19,1.87c1.9-2.02,3.82-4.06,5.55-5.9
				c-0.53-0.56-1.42-1.6-2.43-2.51c-0.38-0.35-1.09-0.31-1.54-0.61c-0.45-0.29-1.04-0.77-1.07-1.2c-0.03-0.43,0.46-1.07,0.89-1.33
				c0.74-0.44,1.62-0.65,2.43-0.96c-0.56-0.93-1.13-1.85-1.68-2.76c-1.05,0.58-1.74,1.14-2.53,1.34c-0.62,0.16-1.36-0.14-2.05-0.24
				c0.21-0.65,0.34-1.36,0.68-1.94c0.22-0.37,0.76-0.54,1.35-0.93c-0.67-0.47-1.37-0.77-1.78-1.29c-0.33-0.42-0.33-1.11-0.48-1.68
				c0.62-0.15,1.39-0.61,1.83-0.39c1.17,0.58,2.19,1.44,3.37,2.27c0.59-0.81,1.04-1.7,1.75-2.3c0.43-0.36,1.24-0.25,1.88-0.36
				c0.04,0.62,0.32,1.35,0.08,1.84c-0.44,0.9-1.17,1.64-1.84,2.53c0.42,0.51,0.8,0.96,1.17,1.42c1.35,1.67,1.4,1.64,2.25-0.31
				c0.19-0.44,0.95-1.03,1.25-0.93c0.5,0.16,1.1,0.76,1.21,1.27c0.41,1.81,0.63,3.66,0.96,5.7c2.23-1.23,4.12-2.26,5.54-3.05
				c0.14-1.35,0.07-2.46,0.44-3.39c0.15-0.39,1.4-0.76,1.86-0.53c0.73,0.36,1.22,1.22,1.89,1.95c4.05-0.92,8.51-1.94,13.04-2.98
				c-3.38-1.88-5.15-4.72-4.44-8.62c0.12-0.67,0.46-2.12,1.69-3.41c1.59-1.69,3.62-1.97,4.25-2.03c0.75-0.16,2.73-0.47,4.94,0.45
				c0.33,0.14,3.01,1.29,4.16,3.82c1.42,3.12,0.13,7.45-3.41,10.36c4.42,1.09,9.04,2.22,13.37,3.29c0.75-0.71,1.45-1.73,2.42-2.16
				c0.47-0.21,1.95,0.6,2.05,1.12c0.19,0.98-0.29,2.1-0.52,3.34c2.03,1.44,4.42,3.13,6.62,4.69c0.84-1,1.76-2,2.56-3.1
				c0.31-0.43,0.41-1.07,0.43-1.61c0.05-1.07,0.05-2.25,1.47-2.2c1.28,0.05,1.32,1.17,1.31,2.18c0,0.36,0.04,0.71,0.08,1.4
				c1.67-1.01,3.18-1.92,4.58-2.78c-0.45-1.71-0.93-3.32-1.27-4.96c-0.19-0.91-0.14-1.91,1.1-2.09c1.26-0.18,1.39,0.76,1.6,1.7
				c0.27,1.26,0.68,2.49,1.04,3.73c0.21-0.16,0.41-0.33,0.62-0.49c0.83,0.28,1.66,0.56,2.48,0.84c-0.44,0.85-0.89,1.7-1.33,2.55
				c-0.18-0.04-0.36-0.08-0.54-0.12c0.28,0.34,0.68,0.65,0.82,1.04c0.17,0.49,0.36,1.35,0.13,1.51c-0.42,0.31-1.21,0.47-1.7,0.29
				c-0.8-0.29-1.57-1.4-2.18-1.28c-1.28,0.25-2.45,1.08-3.66,1.68c0.01,0.16,0.01,0.32,0.02,0.48c0.57,0.2,1.17,0.32,1.69,0.61
				c0.46,0.26,1.12,0.68,1.14,1.06c0.02,0.46-0.6,1.39-0.84,1.35c-2.3-0.3-3.29,2.18-5.24,2.25c2.01,3.14,3.98,6.2,5.71,8.91
				c1.25,0.07,2.47-0.09,3.5,0.28c0.44,0.16,0.9,1.68,0.63,2.1c-0.55,0.83-1.61,1.33-2.72,2.16c2.31,9.25-0.19,17.46-8.44,23.9
				c7.89,6.3,10.34,14.35,7.86,24.09c1.59-0.09,3.15,0.11,3.4,1.88c0.11,0.77-0.42,1.91-1.04,2.42c-1.3,1.07-2.55,0.27-3.48-0.6
				c-1.97,3.14-3.91,6.23-5.76,9.17c0.84,0.5,1.78,1.11,2.78,1.63c0.44,0.23,0.97,0.28,1.47,0.38c0.69,0.15,1.47,0.12,2.06,0.45
				c0.41,0.23,0.9,1.09,0.76,1.38c-0.22,0.46-0.9,0.79-1.46,0.99c-0.65,0.24-1.37,0.29-2.06,0.42c-0.01,0.21-0.03,0.41-0.04,0.62
				c0.83,0.67,1.59,1.45,2.51,1.94c0.39,0.21,1.15-0.09,1.66-0.33c0.86-0.42,1.46-2.14,2.59-0.86c0.45,0.5-0.04,1.83-0.1,2.7
				c0.36,0.66,1.31,1.58,1.15,2.25c-0.45,1.93-1.94,0.82-3.07,0.56c-0.21,1.69-0.29,3.3-0.68,4.84c-0.13,0.52-1.04,0.85-1.59,1.26
				c-0.34-0.6-0.82-1.16-0.96-1.8c-0.12-0.54,0.13-1.18,0.25-1.77c0.41-2.13,0.03-3.93-2.02-5.12c-0.59-0.34-1.06-0.89-1.77-1.51
				c0,1.19,0.13,2.16-0.05,3.06c-0.1,0.51-0.67,1.23-1.11,1.28c-0.42,0.05-0.99-0.57-1.38-1c-0.21-0.23-0.26-0.69-0.25-1.03
				c0.07-1.44-0.27-2.51-1.61-3.43c-0.74-0.51-0.91-1.83-1.35-2.82c-2,1.52-4.18,3.18-6.48,4.93c1.01,1.18,1.83,2.64,0.66,4.06
				c-0.58,0.71-1.8,1.24-2.73,1.23c-1.6-0.02-2.29-1.32-2.46-2.66c-4.52,1.13-8.96,2.25-13.16,3.3c0.58,0.35,3.16,1.99,3.83,5.13
				c0.79,3.7-1.47,7.46-4.61,8.92c-1.83,0.85-3.58,0.74-4.51,0.61c-3.62-0.85-6.21-4-6.32-7.57c-0.1-3.2,1.82-6.21,4.84-7.56
				c-2.19-0.39-4.29-0.7-6.35-1.16c-2.1-0.46-4.17-1.06-6.38-1.64c-0.24,1.59-0.75,3.12-2.59,3.14c-0.82,0.01-1.9-0.54-2.42-1.18
				c-1.04-1.3-0.33-2.6,0.76-3.8c-1.99-1.1-3.9-2.15-6.04-3.34c-0.42,1.93-0.76,3.67-1.22,5.38c-0.1,0.37-0.61,0.83-0.98,0.88
				c-0.46,0.07-1.13-0.09-1.43-0.42c-1.51-1.67-1.48-1.7-3.11,0.39c0.6,0.8,1.32,1.56,1.78,2.45c0.26,0.5,0.11,1.23,0.14,1.85
				c-0.7-0.09-1.57,0.04-2.06-0.33c-0.72-0.55-1.18-1.46-1.78-2.26c-1.12,0.79-2.03,1.62-3.09,2.13c-0.54,0.26-1.35-0.06-2.04-0.12
				c0.2-0.66,0.28-1.4,0.65-1.94c0.31-0.46,0.95-0.71,1.65-1.18c-0.63-0.4-1.29-0.62-1.64-1.08c-0.33-0.43-0.62-1.3-0.4-1.62
				c0.26-0.39,1.09-0.56,1.65-0.52c0.48,0.04,0.91,0.54,1.38,0.8c1.14,0.64,2.87-0.09,2.92-1.39c0.02-0.5-0.72-1.12-1.24-1.52
				c-0.53-0.41-1.49-0.47-1.75-0.96c-0.45-0.83-0.1-1.93,1.02-1.69c1.38,0.3,2.08-0.28,2.91-1.14c0.52-0.54,1.29-0.82,1.59-1.01
				c-1.76-1.99-3.54-4.01-5.42-6.13c-1.13,1.22-2.14,2.65-3.82,1.75c-0.73-0.39-1.43-1.33-1.61-2.14c-0.35-1.61,0.77-2.52,2.33-3.05
				C4.5,91.16,1.47,83.79,0,75.43v53.53c0,3.17,2.57,5.74,5.74,5.74h123.22c3.17,0,5.74-2.57,5.74-5.74V5.74
				C134.69,2.57,132.13,0,128.96,0z"/>
		</g>
	</g>
	<g>
		<g>
			<path class="st14" d="M213.93,66.14V30.25h-0.11l-15.08,35.89h-3.43l-14.98-35.89h-0.11v35.89h-4.03v-40.3h6.21l14.65,34.31
				l14.7-34.31h6.21v40.3H213.93z"/>
			<path class="st14" d="M257.39,66.14l-5.83-13.56h-18.73l-5.88,13.56h-4.19l17.21-40.3h4.52l17.32,40.3H257.39z M242.25,30.41
				l-7.9,18.52h15.63L242.25,30.41z"/>
			<path class="st14" d="M294.54,66.14l-23.91-35.45h-0.11v35.45h-4.03v-40.3h5.45l22.49,33.44h0.11V25.84h4.03v40.3H294.54z"/>
			<path class="st14" d="M306.74,66.14v-40.3h11.93c4.85,0,9.75,1.2,13.34,3.54c5.45,3.59,8.77,10.02,8.77,16.83
				c0,5.01-1.91,9.86-5.83,13.89c-3.92,4.08-9.64,6.04-16.45,6.04H306.74z M318.17,62.49c6.7,0,11.16-1.74,14.11-4.85
				c3.05-3.27,4.47-7.46,4.47-11.65c0-5.23-2.18-9.8-6.43-13.07c-2.83-2.18-7.13-3.43-12.31-3.43h-7.24v33H318.17z"/>
			<path class="st14" d="M347.04,66.14v-40.3h22.06v3.65h-18.03v14.49h17.43v3.65h-17.43v14.87h18.03v3.65H347.04z"/>
			<path class="st14" d="M376.89,66.14v-40.3h4.03v36.65h16.67v3.65H376.89z"/>
			<path class="st14" d="M401.61,66.14v-40.3h10.35c8.44,0,12.96,4.63,12.96,10.73c0,3.32-1.2,5.55-4.41,8.11
				c4.3,1.8,6.7,5.61,6.7,9.91c0,5.5-3.1,11.55-13.61,11.55H401.61z M412.01,43.21c7.73,0,8.88-4.47,8.88-6.81
				c0-3-1.74-6.92-9.2-6.92h-6.04v13.72H412.01z M413.27,62.49c5.17,0,9.91-2.07,9.91-7.9c0-4.57-3.98-7.73-9.91-7.73h-7.62v15.63
				H413.27z"/>
			<path class="st14" d="M454.33,66.14l-13.67-18.24h3.92c7.13,0,11.38-3.65,11.38-9.15c0-3.81-2.34-9.26-11.6-9.26h-7.68v36.65
				h-4.03v-40.3h12.14c10.51,0,15.19,6.21,15.19,13.02c0,6.54-4.9,11.71-11.98,12.25l11.38,15.03H454.33z"/>
			<path class="st14" d="M485.54,66.85c-11,0-21.29-8.93-21.29-20.64c0-11.6,9.48-21.08,21.29-21.08c11.71,0,21.35,9.37,21.35,20.86
				C506.89,57.37,497.25,66.85,485.54,66.85z M485.48,28.78c-9.53,0-17.21,8.06-17.21,17.43c0,9.09,7.9,16.99,17.26,16.99
				c9.64,0,17.32-7.9,17.32-17.15C502.86,36.73,495.18,28.78,485.48,28.78z"/>
			<path class="st14" d="M518.82,66.14V29.49h-9.26v-3.65h22.49v3.65h-9.2v36.65H518.82z"/>
		</g>
		<g>
			<path class="st14" d="M226.11,113.28V87.17h2.61v26.11H226.11z"/>
			<path class="st14" d="M244.67,113.28V89.53h-6v-2.36h14.57v2.36h-5.96v23.74H244.67z"/>
			<path class="st14" d="M290.82,93.8c0-2.68-2.19-4.73-4.62-4.73c-2.68,0-4.73,2.01-4.73,4.55c0,2.22,1.34,3.6,5.04,4.55
				c5.64,1.45,7.55,4.37,7.55,7.9c0,4.27-3.49,7.66-7.87,7.66c-4.62,0-7.97-3.1-8.04-7.76h2.61c0.18,3.35,2.29,5.4,5.43,5.4
				c2.96,0,5.26-2.33,5.26-5.19c0-2.82-1.87-4.41-5.29-5.4c-3.74-1.06-7.3-2.29-7.3-7.06c0-4.13,3.32-7.02,7.34-7.02
				c4.06,0,7.23,3.07,7.23,7.09H290.82z"/>
			<path class="st14" d="M304.19,103.75c0-5.68,4.59-10.27,10.05-10.27c5.61,0,10.12,4.73,10.12,10.12
				c0,5.61-4.69,10.12-10.12,10.12C308.78,113.74,304.19,109.11,304.19,103.75z M321.9,103.5c0-4.2-3.39-7.8-7.66-7.8
				c-4.2,0-7.58,3.63-7.58,8.01c0,4.23,3.42,7.8,7.62,7.8C318.62,111.51,321.9,107.91,321.9,103.5z"/>
			<path class="st14" d="M335.17,113.28V87.17h2.47v26.11H335.17z"/>
			<path class="st14" d="M363.74,113.28v-3h-0.07c-1.09,2.22-3.35,3.46-6.14,3.46c-4.13,0-8.36-2.19-8.36-8.71V93.98h2.47v10.76
				c0,4.37,1.87,6.77,5.89,6.77c3.32,0,6.07-2.33,6.07-6.95V93.98h2.47v19.3H363.74z"/>
			<path class="st14" d="M380.04,113.28V96.2h-4.06v-2.22h4.06v-6.81h2.47v6.81h4.62v2.22h-4.62v17.07H380.04z"/>
			<path class="st14" d="M396.8,91.62v-4.44h2.47v4.44H396.8z M396.8,113.28v-19.3h2.47v19.3H396.8z"/>
			<path class="st14" d="M410.1,103.75c0-5.68,4.59-10.27,10.05-10.27c5.61,0,10.12,4.73,10.12,10.12c0,5.61-4.69,10.12-10.12,10.12
				C414.69,113.74,410.1,109.11,410.1,103.75z M427.81,103.5c0-4.2-3.39-7.8-7.66-7.8c-4.2,0-7.58,3.63-7.58,8.01
				c0,4.23,3.42,7.8,7.62,7.8C424.53,111.51,427.81,107.91,427.81,103.5z"/>
			<path class="st14" d="M455.58,113.28v-10.76c0-4.34-2.61-6.81-6-6.81c-3.74,0-6.03,2.86-6.03,6.63v10.94h-2.47v-19.3h2.47v2.47
				h0.07c1.23-1.87,3.42-2.96,5.93-2.96c5.33,0,8.5,3.67,8.5,9.03v10.76H455.58z"/>
			<path class="st14" d="M477.06,98.74c-0.14-1.87-1.3-3.03-2.89-3.03c-1.62,0-2.93,1.23-2.93,2.89c0,1.41,0.99,2.4,3.35,3.17
				c4.69,1.55,5.61,3.42,5.61,6.17c0,3.53-2.36,5.79-6.07,5.79c-3.32,0-5.93-2.36-5.93-6.03v-0.14h2.47
				c0.04,2.58,1.38,3.95,3.46,3.95c2.22,0,3.6-1.23,3.6-3.46c0-1.87-1.2-2.89-3.42-3.7c-3.39-1.23-5.54-2.19-5.54-5.5
				c0-3.1,2.33-5.36,5.5-5.36c2.89,0,5.26,2.19,5.26,5.26H477.06z"/>
		</g>
	</g>
</g>
</svg>
